<svg xmlns="http://www.w3.org/2000/svg" xmlns:xlink="http://www.w3.org/1999/xlink" fill="none" version="1.1" width="836.0733032226562" height="509.32562255859375" viewBox="0 0 836.0733032226562 509.32562255859375"><path d="M808.37061,282.60419Q827.48187,303.59647,833.54559,331.78366Q839.49146,359.42126,831.45087,387.41568Q823.41028,415.41031,803.70398,435.68057Q783.60693,456.353,756.26892,464.00427Q728.52747,471.76859,699.59082,463.45743Q692.84296,461.51932,686.74341,458.81476Q686.40973,458.66681,686.07776,458.51645L680.85437,476.70261Q675.47021,495.4476,659.92773,504.04068Q644.42773,512.63562,625.68402,507.25256L618.30518,505.13333Q599.57043,499.75156,590.97076,484.22183Q582.37329,468.69638,587.75446,449.96182L595.19293,424.06357Q578.53973,430.20328,559.45038,430.20328Q529.12646,430.20328,506.34238,415.15707Q483.83954,400.29672,472.20514,374.53476Q464.40244,357.25726,462.27747,337.08258Q462.20334,336.37888,462.13599,335.67001L456.58646,337.65042Q438.51999,344.21335,422.75961,337.20126Q408.8078,330.99127,400.33661,315.49893L400.04001,314.95651L399.76602,314.40228Q395.94131,306.66653,391.51682,302.56235Q387.80157,299.11374,380.87845,296.7959Q369.327,292.92795,359.54739,295.05991Q349.94577,297.15286,342.41495,304.36203Q334.1326,312.29062,329.80914,325.20358Q325.3602,338.49072,327.1283,349.86118Q328.6929,359.92398,335.09497,367.31235Q341.77286,375.01901,353.38678,378.90759Q360.26657,381.21127,366.11172,380.7045Q372.75748,380.12964,379.5657,376.88989L380.21658,376.5802L380.88156,376.30203Q396.25571,369.87241,410.20197,372.73251Q426.9754,376.15994,437.71466,391.79465L442.4227,398.59109Q454.44598,415.85519,450.2767,434.28503Q445.78436,454.22388,425.67108,463.48755Q402.69022,474.53918,376.49298,476.91507Q349.29294,479.38257,322.72345,470.48648Q297.12927,461.91696,277.62506,445.35806Q275.12027,443.23151,272.71573,440.97302Q269.89554,442.5321,266.67157,443.64731Q266.44168,443.72684,266.211,443.80368L265.50073,444.07617L264.35544,444.41397Q264.00092,444.51852,263.64609,444.61679L263.63522,444.61981Q260.60645,454.19446,252.68558,460.70987Q241.56836,469.85446,226.43671,468.38113L226.05038,468.34363Q215.62537,467.32959,208.03365,461.73343Q207.23312,461.14334,206.464,460.5022Q197.21846,465.63556,185.62262,464.50757L185.21091,464.46707Q170.15021,463.00208,161.02629,451.91183Q160.2106,450.92038,159.47951,449.89624L159.44965,449.85434Q147.64059,445.25568,141.67052,434.29599Q135.30528,422.61084,138.61101,409.03622L138.69354,408.69736L138.78394,408.36044Q140.07764,403.53854,140.98239,398.16455Q141.95073,392.41284,142.5834,385.90768L142.69189,384.79245Q136.05269,390.88989,126.31011,393.03308L51.771828,409.42917Q37.245647,412.62427,25.318558,404.99899Q13.390006,397.37277,10.197448,382.8595L10.132152,382.56335Q8.1951141,373.75671,10.241175,365.89294Q10.502393,364.88898,10.828444,363.90067Q10.33909,360.74051,10.385363,357.70395Q10.386628,357.62091,10.388293,357.53799Q7.9998584,352.76047,6.7389832,347.02859L6.679646,346.75842Q5.4602718,341.21616,6.0639129,335.84384Q6.1368895,335.19437,6.2364988,334.54742Q5.6243792,332.57727,5.1627622,330.47882L1.1205795,312.10257Q-2.5804927,295.27777,5.9424181,281.94864Q6.0634327,281.7594,6.1865563,281.57144L6.1966729,281.556L5.9678822,280.5159L7.0743475,280.27243Q15.551291,268.38095,31.288311,264.91995L46.060818,261.67035Q44.521656,253.37624,46.313915,244.0143L84.821426,54.166019Q88.375183,37.517857,99.803345,26.988861Q110.97896,16.692553,127.39568,14.22153L135.21753,13.043934Q151.63541,10.572737,165.34686,17.123306Q179.36794,23.821781,187.52597,38.434376L213.42271,85.957024Q216.6754,73.401863,224.73535,62.437366Q241.11652,39.274014,266.71072,31.323996Q290.25061,24.006645,314.52655,29.455643Q334.40622,33.916656,350.05237,44.677296Q352.28091,46.209976,354.42328,47.87022Q356.66327,49.493435,358.62656,51.227055L358.68137,51.275536Q361.58365,49.916119,364.70404,49.017624Q364.84262,48.977722,364.983,48.938347L365.27985,42.50827Q366.18381,22.921568,379.26352,11.025943Q392.32468,-0.83857238,411.87958,0.063777149L419.5491,0.41780251Q439.10446,1.3215039,450.9996,14.319283Q462.94724,27.343102,462.04172,46.953266L461.84424,51.230572Q470.45886,52.236027,477.43954,55.873653Q478.14203,56.239719,478.82764,56.63224Q492.49277,42.945877,510.50543,34.968193Q536.84552,23.303085,566.67499,27.374908Q584.81604,29.85116,599.3349,38.11639Q601.1947,39.17514,602.99493,40.328766Q612.95911,36.890026,624.8783,38.517586L632.88489,39.610676Q649.8855,41.930923,660.26764,53.089413Q661.65375,54.579197,662.92206,56.226696Q666.32196,55.337936,670.03394,54.869389L677.65082,53.908432Q688.57782,52.529915,697.77155,55.342213Q698.85657,55.674114,699.91724,56.064301Q708.18488,51.352169,717.39514,48.221542Q738.24066,40.787529,755.27734,52.102982Q771.31879,62.745396,773.9104,83.285477L774.84198,90.668785Q777.13538,108.84132,767.68762,122.30162Q758.94843,134.75249,742.47473,139.73633L742.01459,139.87553L741.55023,139.99992Q737.66364,141.04106,735.9325,142.14091Q735.80896,142.21941,735.6969,142.29782Q735.61108,142.5549,735.51361,142.95607Q734.40759,147.50789,735.59937,156.95256L742.93018,215.05035Q745.38513,234.50444,734.55219,248.4662Q734.27362,248.82524,733.9906,249.17502L733.96124,249.21124Q746.72205,249.16515,760.04114,252.9906Q788.97766,261.30182,808.37061,282.60419Z" fill-rule="evenodd" fill="#FFFFFF" fill-opacity="1"/></svg>